/* XPM */
static char *icon___x__x__[] = {
/* columns rows colors chars-per-pixel */
"48 48 189 2",
"   c #711213",
".  c #731314",
"X  c #731315",
"o  c #721414",
"O  c #721415",
"+  c #731517",
"@  c #741416",
"#  c #731718",
"$  c #771D1E",
"%  c #781F20",
"&  c #782021",
"*  c #792122",
"=  c #7B2223",
"-  c #7B2324",
";  c #7A2425",
":  c #7C2526",
">  c #7C2527",
",  c #7C2627",
"<  c #7C2728",
"1  c #7D2728",
"2  c #7D2729",
"3  c #7D2829",
"4  c #7D292A",
"5  c #7E292A",
"6  c #7E2A2A",
"7  c #7E2A2B",
"8  c #7E2B2C",
"9  c #7F2B2C",
"0  c #7F2C2D",
"q  c #812E2D",
"w  c #832D2F",
"e  c #842E2E",
"r  c #842F30",
"t  c #863133",
"y  c #8A3937",
"u  c #883938",
"i  c #8B3E3E",
"p  c #8E4141",
"a  c #8F4645",
"s  c #904746",
"d  c #914847",
"f  c #944D4C",
"g  c #985352",
"h  c #9D5C5B",
"j  c #A46767",
"k  c #A9706F",
"l  c #AA7170",
"z  c #B27E7D",
"x  c #7B912B",
"c  c #7C922F",
"v  c #7C9230",
"b  c #7D9330",
"n  c #7C9331",
"m  c #7D9331",
"M  c #7C9332",
"N  c #7D9332",
"B  c #7D9333",
"V  c #7F9431",
"C  c #7D9432",
"Z  c #7D9433",
"A  c #7E9535",
"S  c #7F9535",
"D  c #7F9536",
"F  c #809636",
"G  c #809637",
"H  c #839736",
"J  c #849838",
"K  c #899C3E",
"L  c #A7812F",
"P  c #A88330",
"I  c #A88331",
"U  c #A88332",
"Y  c #A88431",
"T  c #A98431",
"R  c #A98432",
"E  c #A98633",
"W  c #AA8633",
"Q  c #A88434",
"!  c #A98435",
"~  c #A98535",
"^  c #A98536",
"/  c #A98636",
"(  c #AA8636",
")  c #AA8637",
"_  c #AC8836",
"`  c #AD8938",
"'  c #AE8B38",
"]  c #B08E3D",
"[  c #8B9D41",
"{  c #B19040",
"}  c #B39244",
"|  c #B7984C",
" . c #BB9C52",
".. c #BB9C53",
"X. c #BD9F57",
"o. c #95A54E",
"O. c #95A54F",
"+. c #99A853",
"@. c #99A854",
"#. c #9BAA57",
"$. c #9FAD5D",
"%. c #B5807F",
"&. c #A3B062",
"*. c #A3B063",
"=. c #A8B46A",
"-. c #AAB66D",
";. c #B3BD7C",
":. c #B5BF7F",
">. c #C3A866",
",. c #C4A968",
"<. c #C6AC6D",
"1. c #CCB47A",
"2. c #CEB77E",
"3. c #CFB87F",
"4. c #BF9594",
"5. c #C19796",
"6. c #D3BE89",
"7. c #D3BE8A",
"8. c #D1B3B2",
"9. c #D3B9B7",
"0. c #B7C182",
"q. c #C1C992",
"w. c #C3CB96",
"e. c #C7CD9B",
"r. c #D6C292",
"t. c #D6C393",
"y. c #D8C699",
"u. c #DAC89A",
"i. c #DAC89C",
"p. c #DFCFA6",
"a. c #CBD1A2",
"s. c #CBD2A3",
"d. c #CFD5A9",
"f. c #D6DBB5",
"g. c #D9DDBA",
"h. c #DADEBB",
"j. c #E1D2AC",
"k. c #E2D3AF",
"l. c #E5D8B5",
"z. c #E5D8B8",
"x. c #E6D9B8",
"c. c #E6DAB9",
"v. c #DAC4C3",
"b. c #DFCCCB",
"n. c #E9DEC2",
"m. c #EADFC3",
"M. c #E2D1CF",
"N. c #E1E4C7",
"B. c #EAE0C4",
"V. c #E7E9D1",
"C. c #EAECD7",
"Z. c #ECEEDB",
"A. c #F1E9D5",
"S. c #F0E9D6",
"D. c #EEE6E5",
"F. c #F5F0E2",
"G. c #F2F3E5",
"H. c #F3F4E6",
"J. c #F3F4E7",
"K. c #F3F4E8",
"L. c #F5F5EA",
"P. c #F6F7ED",
"I. c #F8F4EA",
"U. c #F8F5EB",
"Y. c #FAF7F0",
"T. c #F9F9F2",
"R. c #FCF9F3",
"E. c #FBFBF6",
"W. c #FCFAF5",
"Q. c #FCFBF6",
"!. c #FAF9F8",
"~. c #FCFBFA",
"^. c #FDFBFB",
"/. c #FDFCF9",
"(. c #FCFCFB",
"). c #FEFEFB",
"_. c #FDFCFC",
"`. c #FDFDFC",
"'. c #FEFCFC",
"]. c #FEFDFD",
"[. c #FEFEFC",
"{. c #FEFEFD",
"}. c #FFFEFD",
"|. c #FFFFFD",
" X c #FEFEFE",
".X c #FFFEFE",
"XX c #FEFFFE",
"oX c #FFFFFE",
"OX c gray100",
/* pixels */
"OXOXOXOXOXOXOXOXOXOXOXOXOXOXOXOXOXOXOXOXOXOXOXOXOXOXOXOXOXOXOXOXOXOXOXOXOXOXOXOXOXOXOXOXOXOXOXOX",
"OXOXOXOXOXOXOXOXOXOXOXOXOXOXOXOXOXOXOXOXOXOXOXOXOXOXOXOXOXOXOXOXOXOXOXOXOXOXOXOXOXOXOXOXOXOXOXOX",
"OXOXOXOXOXOXOXOXOXOXOXOXOXOXOXOXOXOXOXOXOXOXOXOXOXOXOXOXOXOXOXOXOXOXOXOXOXOXOXOXOXOXOXOXOXOXOXOX",
"OXOXOXOXOXOXOXOXOXOXOXOXOXOXOXOXOXOXOXOXOXOXOXOXOXOXOXOXOXOXOXOXOXOXOXOXOXOXOXOXOXOXOXOXOXOXOXOX",
"OXOXOXOXOXOXOXOXOXOXOXOXOXOXOXOXOXOXOXOXOXOXOXOXOXOXOXOXOXOXOXOXOXOXOXOXOXOXOXOXOXOXOXOXOXOXOXOX",
"OXOXOXOXOXOXOXOXOXOXOXOXOXOXOXOXOXOXOXOXOXOXOXOXOXOXOXOXOXOXOXOXOXOXOXOXOXOXOXOXOXOXOXOXOXOXOXOX",
"OXOXOXOXOXOXOXOXOXOXOXOXOXOXOXOXOXOXOXOXOXOXOXOXOXOXOXOXOXOXOXOXOXOXOXOXOXOXOXOXOX'.G.g.a.'.OXOX",
"OXOXOXOXOXOXOXOXOXOXOXOXOXOXOXOXOXOXOXOXOXOXOXOXOXOXOXOXOXOXOXOXOXOXOXOXOXOXOXC.q.$.K x +.'.OXOX",
"OXOXOXOXOXOXOXOXOXOXOXOXOXOXOXOXOXOXOXOXOXOXOXOXOXOXOXOXOXOXOXOXOXOXOXOXOXL.:.J b A D b ;.OXOXOX",
"OXOXOXOXOXOXOXOXOXOXOXOXOXOXOXOXOXOXOXOXOXOXOXOXOXOXOXOXOXOXOXOXOXOX'.OXZ.+.c F A A D b f.OXOXOX",
"OXOXOXOXOXOXOXOXOXOXOXOXOXOXOXOXOXOXOXOXOXOXOXOXOXOXOXOXOXOXOXOXOXOXOXH.O.C F A F A A O.P.OXOXOX",
"OXOXOXOXOXOXOXOXOXOXOXOXOXOXOXOXOXOXOXOXOXOXOXOXOXOXOXOXOXOXOXOXOXOXOX=.C F A F F F v d.OXOXOXOX",
"OXOXOXOXOXOXOXOXOXOXOXOXOXOXOXOXOXOXOXOXOXOXOXOXOXOXOXOXOXOXOXOXOXOXf.C F A F A F v -.OX`.OXOXOX",
"OXOXOXOXOXOXOXOXOXOXOXOXOXOXOXOXOXOXOXOXOXOXOXOXOXOXOXOXOXOXOXOXOX'.$.C F F A D b #.L.OXOXOXOXOX",
"OXOXOXOXP.p.I.OXOXOXOXOXOXOXOXOXOXOXOXOXOXOXOXOXOXOXOXOXOXOXOXOXOXV.H G A F A v &.J.OXOXOXOXOXOX",
"OXOXOXOXA.]  .n.OXOXOXOXOXOXOXOXOXOXOXOXOXOXOXOXOXOXOXOXOXOXOX'.OXs.b G b c [ w.E.OXOXOXOXOXOXOX",
"OXOXOXOXn._ ) ] l.OXOXOXOXOXOXOXOXOXOXOXOXOXOXOXOXOXOXOXOXOXOXOXOX0.x [ &.e.G.OXOXOXOXOXOXOXOXOX",
"OXOXOXOXj.P ) Y ] n.OXOXOXOXOXOXOXOXOXOXOXOXOXOXOXOXOXOXOXOXOXOXOXN.g.J.OXOXOX'.OXOXOXOXOXOXOXOX",
"OXOXOXOXy.P ) ) Y  .L.OXOXOXOXOXOXOXOXOXOXOXOXOXOXOXOXOXOXOXOXOXOXOXOXOXOXOXOXOXOXOXOXOXOXOXOXOX",
"OXOXOXOXr.P ) ) ) Y r.OXOXOXOXOXOXOXOXOXOXOXOXOXOXOXOXOXOXOXOXOXOXOXOXOXOXOXOXOXOXOXOXOXOXOXOXOX",
"OXOXOXOXi.U ) Y ) ) | I.OXOXOXOXOXOXOXOXOXOXOXOXOXOXOXOXOXOXOXOXOXOXOXOXOXOXOXOXOXOXOXOXOXOXOXOX",
"OXOX'.OXc.Y ) ) Y ) Y z.OXOXOXOXOXOXOXOXOXOXOXOXOXOXOXOXOXOXOXOXOXOXOXOXOXOXOXOXOXOXOXOXOXOXOXOX",
"OXOXOXOXF.} Y ) ) ) Y 7.OX'.OXOXOXOXOXOXOXOXOXOXOXOXOXOXOXOXOXOXOXOXOXOXOXOXOXOXOXOXOXOXOXOXOXOX",
"OXOXOXOXOX2.U ) Y ) U <.OXOXOXOXOXOXOXOXOXOXOXOXOXOXOXOXOXOXOXOXOXOXOXOXOXOXOXOXOXOXOXOXOXOXOXOX",
"OXOXOXOXOXA.] ) ) ) P >.OXOXOXOXOXOXOXOXOXOXOXOXOXOXOXOXOXOXOXOXOXOXOXOXOXOXOXOXOXOXOXOXOXOXOXOX",
"OXOXOXOXOXOXu.Y ) ) P ,.OXOXOXOXOXOXOXOXOXOXOXOXOXOXOXOXOXOXOXOXOXOXOXOXOXOXOXOXOXOXOXOXOXOXOXOX",
"OXOXOXOXOXOX'.3.Y ) Y 1.OXOXOXOXOXOXOXOXOXOXOXOXOXOXOXOXOXOXOXOXOXOXOXOXOXOXOXOXOXOXOXOXOXOXOXOX",
"OXOXOXOXOXOXOXW.7._ L r.OX'.OXOXOXOXOXOXOXOXOXOXOXOXOXOXOXOXOXOXOXOXOXOXOXOXOXOXOXOXOXOXOXOXOXOX",
"OXOXOXOXOXOXOXOX'.l.X.k.OXOXOXOXOXOXOXOXOXOXOXOXOXOXOXOXOXOXOXOXOXOXOXOXOXOXOXOXOXOXOXOXOXOXOXOX",
"OXOXOXOXOXOXOXOXOXOXW.W.OXOXOXOXOXOXOXOXOXOXOXOXOXOXOXOXOXOXOXOXOXOXOXOXOXOXOXOXOXOXOXOXOXOXOXOX",
"OXOXOXOXOXOXOXOXOXOXOXOXOXOXOXOXOXOXOXOXOXOX(.'.^.'.^.OXOXOXOXOXOXOXOXOXOXOXOXOXOXOXOXOXOXOXOXOX",
"OXOXOXOXOXOXOXOXOXOXOXOXOXOXOXOXOXOXOX(.OXOXOXOXOXOXOX'.OXOXOXOXOXOXOXOXOXOXOXOXOXOXOXOXOXOXOXOX",
"OXOXOXOXOXOXOXOXOXOXOXOXOXOXOXOXOX'.'.OXM.z g a s d u 9.OXOXOXOXOXOXOXOXOXOXOXOXOXOXOXOXOXOXOXOX",
"OXOXOXOXOXOXOXOXOXOXOXOXOXOXOXOX'.OXb.i O $ > > > 3 = '.(.OXOXOXOXOXOXOXOXOXOXOXOXOXOXOXOXOXOXOX",
"OXOXOXOXOXOXOXOXOXOXOXOXOXOXOX'.OXz   < 3 > > > 3 o 5.OXOXOXOXOXOXOXOXOXOXOXOXOXOXOXOXOXOXOXOXOX",
"OXOXOXOXOXOXOXOXOXOXOXOXOXOX'.OXk # q > < > > 3 * f OX'.OXOXOXOXOXOXOXOXOXOXOXOXOXOXOXOXOXOXOXOX",
"OXOXOXOXOXOXOXOXOXOXOXOXOX'.OX4.@ 5 < < > < 3 $ u '.'.OXOXOXOXOXOXOXOXOXOXOXOXOXOXOXOXOXOXOXOXOX",
"OXOXOXOXOXOXOXOXOXOXOXOXOXOXD.o 5 < < < 3 3 O h '.'.OXOXOXOXOXOXOXOXOXOXOXOXOXOXOXOXOXOXOXOXOXOX",
"OXOXOXOXOXOXOXOXOXOXOXOXOXOXj ; 5 5 < % o e 8.OX'.OXOXOXOXOXOXOXOXOXOXOXOXOXOXOXOXOXOXOXOXOXOXOX",
"OXOXOXOXOXOXOXOXOXOXOXOX'.E.q t q r p l v.OXOXOXOXOXOXOXOXOXOXOXOXOXOXOXOXOXOXOXOXOXOXOXOXOXOXOX",
"OXOXOXOXOXOXOXOXOXOXOXOXOXOXOXOXOXOXOXOXOX(.OXOXOXOXOXOXOXOXOXOXOXOXOXOXOXOXOXOXOXOXOXOXOXOXOXOX",
"OXOXOXOXOXOXOXOXOXOXOXOXOXOX^.^.(.(.'.'.OXOXOXOXOXOXOXOXOXOXOXOXOXOXOXOXOXOXOXOXOXOXOXOXOXOXOXOX",
"OXOXOXOXOXOXOXOXOXOXOXOXOXOXOXOXOXOXOXOXOXOXOXOXOXOXOXOXOXOXOXOXOXOXOXOXOXOXOXOXOXOXOXOXOXOXOXOX",
"OXOXOXOXOXOXOXOXOXOXOXOXOXOXOXOXOXOXOXOXOXOXOXOXOXOXOXOXOXOXOXOXOXOXOXOXOXOXOXOXOXOXOXOXOXOXOXOX",
"OXOXOXOXOXOXOXOXOXOXOXOXOXOXOXOXOXOXOXOXOXOXOXOXOXOXOXOXOXOXOXOXOXOXOXOXOXOXOXOXOXOXOXOXOXOXOXOX",
"OXOXOXOXOXOXOXOXOXOXOXOXOXOXOXOXOXOXOXOXOXOXOXOXOXOXOXOXOXOXOXOXOXOXOXOXOXOXOXOXOXOXOXOXOXOXOXOX",
"OXOXOXOXOXOXOXOXOXOXOXOXOXOXOXOXOXOXOXOXOXOXOXOXOXOXOXOXOXOXOXOXOXOXOXOXOXOXOXOXOXOXOXOXOXOXOXOX",
"OXOXOXOXOXOXOXOXOXOXOXOXOXOXOXOXOXOXOXOXOXOXOXOXOXOXOXOXOXOXOXOXOXOXOXOXOXOXOXOXOXOXOXOXOXOXOXOX"
};
